<?xml version="1.0" standalone="no"?>
<!DOCTYPE svg PUBLIC "-//W3C//DTD SVG 20010904//EN"
 "http://www.w3.org/TR/2001/REC-SVG-20010904/DTD/svg10.dtd">
<svg version="1.0" xmlns="http://www.w3.org/2000/svg"
 width="268.000000pt" height="268.000000pt" viewBox="0 0 268.000000 268.000000"
 preserveAspectRatio="xMidYMid meet">
<metadata>
Created by potrace 1.11, written by Peter Selinger 2001-2013
</metadata>
<g transform="translate(0.000000,268.000000) scale(0.100000,-0.100000)"
fill="#000000" stroke="none">
<path d="M643 1742 c-12 -2 -26 -16 -33 -33 -10 -24 -10 -33 4 -54 25 -39 46
-33 36 10 -9 40 4 55 27 32 12 -12 13 -19 3 -37 -10 -20 -10 -21 8 -11 53 28
17 104 -45 93z"/>
<path d="M463 1586 c3 -8 18 -50 33 -93 15 -43 29 -80 32 -83 8 -11 32 35 26
53 -11 35 -68 126 -82 132 -9 3 -12 0 -9 -9z"/>
<path d="M800 1513 c-19 -42 -36 -80 -38 -85 -6 -13 34 -9 45 5 11 13 40 98
48 135 9 49 -23 17 -55 -55z"/>
<path d="M649 1570 c-1 -6 -6 -85 -8 -141 -1 -35 -3 -37 -45 -48 -25 -6 -48
-15 -51 -21 -9 -15 -21 -12 -52 13 -62 52 -86 37 -32 -20 l30 -33 -26 -43
c-14 -24 -25 -54 -25 -66 l0 -22 -210 5 c-124 3 -212 1 -215 -5 -4 -5 3 -9 14
-9 12 0 21 -4 21 -8 0 -5 21 -11 48 -13 56 -5 871 -1 992 5 47 2 95 4 108 5
12 1 22 4 22 9 0 8 -13 9 -442 11 -170 1 -308 6 -308 10 0 24 80 118 114 134
96 45 211 3 263 -96 9 -18 18 -26 21 -19 2 7 -6 31 -18 54 -12 22 -17 44 -13
47 21 15 53 65 53 84 0 16 -7 13 -44 -21 l-44 -40 -48 24 c-26 13 -53 24 -59
24 -8 0 -13 22 -14 66 -1 36 -8 78 -16 92 -8 15 -15 25 -16 22z"/>
<path d="M293 1538 c-30 -38 -13 -98 27 -98 17 0 18 3 8 24 -6 14 -8 32 -4 41
10 27 39 -2 32 -31 -5 -18 -3 -22 9 -18 8 4 15 9 16 13 0 3 2 14 4 23 8 43
-66 80 -92 46z"/>
<path d="M933 1538 c-27 -35 -19 -79 17 -98 21 -11 22 -10 15 28 -5 30 -3 41
9 45 17 7 30 -22 20 -47 -10 -27 12 -18 25 10 10 22 9 31 -4 50 -17 26 -66 33
-82 12z"/>
<path d="M1399 1488 c0 -2 -2 -45 -2 -96 -2 -80 1 -95 16 -103 13 -8 17 -6 18
8 1 10 2 26 3 35 0 9 17 27 36 40 64 43 42 118 -35 118 -19 0 -35 -1 -36 -2z
m69 -61 c2 -15 -1 -27 -7 -27 -6 0 -14 0 -18 0 -9 0 -13 41 -6 53 9 16 28 0
31 -26z"/>
<path d="M1630 1390 c0 -59 4 -100 10 -101 64 -7 90 -3 90 14 0 12 -8 17 -29
17 -35 0 -41 8 -30 37 5 15 14 20 28 16 16 -4 21 -1 21 15 0 12 -7 19 -17 19
-36 0 -40 3 -35 28 3 20 10 25 33 25 19 0 29 5 29 15 0 11 -12 15 -50 15 l-50
0 0 -100z"/>
<path d="M1878 1393 c-23 -66 -31 -100 -24 -105 6 -5 18 1 28 12 21 26 52 26
69 0 9 -12 19 -17 26 -12 9 6 4 31 -21 101 -19 51 -36 94 -39 97 -2 2 -20 -39
-39 -93z m51 -35 c1 -5 -6 -8 -15 -8 -11 0 -14 5 -10 16 3 9 6 21 7 27 0 12
17 -20 18 -35z"/>
<path d="M2109 1483 c-1 -5 -2 -49 -3 -100 -2 -81 0 -92 16 -96 18 -5 23 10
19 56 -3 27 15 20 29 -13 15 -37 32 -51 48 -41 10 6 8 16 -8 44 -20 34 -20 38
-6 53 40 39 3 104 -59 104 -19 0 -36 -3 -36 -7z m69 -56 c3 -24 -4 -32 -25
-24 -4 1 -9 15 -11 30 -3 23 0 28 15 25 11 -2 19 -14 21 -31z"/>
<path d="M2359 1483 c-6 -35 -3 -189 3 -194 4 -3 24 -3 43 -1 41 5 49 32 10
32 -25 0 -25 1 -25 85 0 69 -3 85 -15 85 -8 0 -16 -3 -16 -7z"/>
<path d="M2577 1472 c-25 -28 -21 -40 30 -89 43 -42 45 -47 29 -59 -12 -9 -26
-10 -41 -4 -17 6 -27 5 -35 -5 -15 -18 6 -28 56 -28 76 0 88 62 23 116 -47 38
-46 62 2 52 22 -5 29 -3 29 8 0 31 -68 37 -93 9z"/>
<path d="M197 1360 c7 -27 22 -37 88 -60 59 -20 105 -26 105 -12 -1 7 -178 93
-192 92 -3 0 -4 -9 -1 -20z"/>
<path d="M1002 1327 c-82 -32 -98 -49 -50 -55 28 -3 107 32 148 67 23 19 23
20 5 20 -11 0 -57 -15 -103 -32z"/>
<path d="M1639 1173 c-9 -24 -7 -30 11 -45 28 -23 33 -22 55 2 15 17 16 24 7
45 -16 36 -59 34 -73 -2z m59 -12 c5 -31 -17 -45 -40 -24 -13 12 -15 20 -7 35
14 26 43 19 47 -11z"/>
<path d="M1746 1191 c-7 -11 -1 -69 8 -78 3 -4 6 3 6 15 0 12 5 22 12 22 6 0
3 6 -7 14 -18 13 -18 13 1 24 16 10 17 11 2 12 -9 0 -19 -4 -22 -9z"/>
<path d="M1852 1159 c2 -23 9 -44 16 -47 9 -3 10 2 3 20 -4 12 -7 31 -6 40 2
10 -1 21 -7 24 -5 4 -8 -11 -6 -37z"/>
<path d="M1916 1179 c-17 -24 -12 -45 14 -59 25 -14 49 -2 56 26 12 48 -41 73
-70 33z m52 -1 c16 -16 15 -23 -4 -43 -12 -12 -19 -13 -30 -4 -17 14 -18 46
-1 52 19 8 22 8 35 -5z"/>
<path d="M2017 1158 c4 -48 13 -65 13 -23 l0 28 25 -23 25 -23 0 36 c0 20 -5
37 -11 37 -6 0 -8 -9 -3 -22 6 -22 5 -21 -23 5 l-29 27 3 -42z"/>
<path d="M2116 1184 c-20 -20 -20 -27 2 -54 11 -13 23 -19 34 -15 21 8 31 45
12 45 -8 0 -11 -6 -8 -15 4 -10 0 -15 -15 -15 -15 0 -21 6 -21 24 0 24 23 41
41 30 5 -3 9 0 9 5 0 17 -37 13 -54 -5z"/>
<path d="M2260 1161 c0 -45 10 -56 33 -38 22 17 11 77 -14 77 -15 0 -19 -7
-19 -39z m30 19 c0 -5 -4 -10 -10 -10 -5 0 -10 5 -10 10 0 6 5 10 10 10 6 0
10 -4 10 -10z m-4 -47 c-10 -10 -19 5 -10 18 6 11 8 11 12 0 2 -7 1 -15 -2
-18z"/>
<path d="M2390 1200 c0 -8 29 -85 30 -80 1 3 3 12 5 20 17 68 17 66 5 47 -11
-18 -12 -18 -26 0 -7 10 -13 16 -14 13z"/>
<path d="M1240 1180 c-9 -6 -10 -10 -3 -10 6 0 15 5 18 10 8 12 4 12 -15 0z"/>
<path d="M2341 1159 c-13 -39 -14 -59 -1 -39 7 12 13 13 28 3 19 -11 19 -10
10 28 -13 47 -22 49 -37 8z m24 -9 c3 -5 1 -10 -4 -10 -6 0 -11 5 -11 10 0 6
2 10 4 10 3 0 8 -4 11 -10z"/>
<path d="M202 1122 c-22 -7 17 -28 68 -37 52 -9 394 -9 585 1 72 4 144 6 161
6 17 0 31 6 31 12 0 8 -101 12 -361 13 -198 2 -385 4 -415 6 -31 2 -62 2 -69
-1z"/>
<path d="M1060 1099 c0 -5 5 -7 10 -4 6 3 10 8 10 11 0 2 -4 4 -10 4 -5 0 -10
-5 -10 -11z"/>
<path d="M380 1038 c0 -5 14 -15 32 -22 35 -15 267 -15 413 0 44 4 83 7 87 6
4 -1 5 4 2 11 -5 15 -534 20 -534 5z"/>
<path d="M560 975 c0 -3 5 -15 10 -26 12 -22 79 -26 143 -8 57 16 44 27 -33
28 -38 0 -81 3 -95 7 -14 3 -25 3 -25 -1z"/>
</g>
</svg>
